<?xml version="1.0" encoding="UTF-8"?>
<svg id="Layer_2" data-name="Layer 2" xmlns="http://www.w3.org/2000/svg" xmlns:xlink="http://www.w3.org/1999/xlink" viewBox="0 0 627.45 504.26">
  <defs>
    <style>
      .cls-1 {
        fill: url(#linear-gradient);
      }
    </style>
    <linearGradient id="linear-gradient" x1="0" y1="252.13" x2="627.45" y2="252.13" gradientUnits="userSpaceOnUse">
      <stop offset="0" stop-color="#d17d28"/>
      <stop offset="1" stop-color="#fdda29"/>
    </linearGradient>
  </defs>
  <g id="Layer_1-2" data-name="Layer 1">
    <path class="cls-1" d="M625.27,297.01c-1.73,7.28-4.28,14.4-8.13,21.07-28.35,49.1-56.7,98.21-85.05,147.31-23.3,40.36-76.12,51.03-113.92,23.77-29.82-21.5-66.16-33.76-104.35-33.76s-74.54,12.26-104.35,33.76c-37.8,27.26-90.62,16.59-113.92-23.77L10.49,318.07c-13.99-24.22-13.99-54.07,0-78.29,8.16-14.14,16.33-28.28,24.49-42.41,20.19-2.47,41.23-3.65,63.24-2.54,118.74,6.02,173,67.55,281.47,98.81,57.81,16.66,138.68,26.32,245.58,3.36ZM98.22,152.53c118.74,6.02,173,67.55,281.47,98.81,57.81,16.66,138.68,26.32,245.58,3.36,4.56-19.18,2.01-39.67-8.13-57.23l-91.22-157.99c-22.08-38.25-71.78-51.43-108.83-27.4-26.12,16.94-60.63,30.99-103.27,30.99s-77.16-14.05-103.27-30.99C173.49-11.95,123.79,1.24,101.71,39.48c-22.25,38.53-44.49,77.05-66.73,115.58,20.19-2.47,41.23-3.65,63.24-2.54Z"/>
  </g>
</svg>